<mxfile host="65bd71144e">
    <diagram id="woPfxdBW8srxPswJxpih" name="Page-1">
        <mxGraphModel dx="601" dy="570" grid="1" gridSize="10" guides="1" tooltips="1" connect="1" arrows="1" fold="1" page="1" pageScale="1" pageWidth="850" pageHeight="1100" math="0" shadow="0">
            <root>
                <mxCell id="0"/>
                <mxCell id="1" parent="0"/>
                <mxCell id="2" value="Pipeline" style="swimlane;childLayout=stackLayout;horizontal=1;fillColor=none;horizontalStack=1;resizeParent=1;resizeParentMax=0;resizeLast=0;collapsible=0;strokeColor=none;stackBorder=10;stackSpacing=-12;resizable=1;align=center;points=[];whiteSpace=wrap;html=1;" parent="1" vertex="1">
                    <mxGeometry x="41" y="330" width="430" height="100" as="geometry"/>
                </mxCell>
                <mxCell id="3" value="Load&lt;div&gt;Data&lt;/div&gt;" style="shape=step;perimeter=stepPerimeter;fixedSize=1;points=[];whiteSpace=wrap;html=1;fillColor=#ffe6cc;strokeColor=#d79b00;" parent="2" vertex="1">
                    <mxGeometry x="10" y="33" width="110" height="57" as="geometry"/>
                </mxCell>
                <mxCell id="4" value="Extract&lt;div&gt;Features&lt;/div&gt;" style="shape=step;perimeter=stepPerimeter;fixedSize=1;points=[];whiteSpace=wrap;html=1;fillColor=#fff2cc;strokeColor=#d6b656;" parent="2" vertex="1">
                    <mxGeometry x="108" y="33" width="112" height="57" as="geometry"/>
                </mxCell>
                <mxCell id="5" value="Build&lt;div&gt;Cluster&lt;/div&gt;" style="shape=step;perimeter=stepPerimeter;fixedSize=1;points=[];whiteSpace=wrap;html=1;fillColor=#f8cecc;strokeColor=#b85450;" parent="2" vertex="1">
                    <mxGeometry x="208" y="33" width="112" height="57" as="geometry"/>
                </mxCell>
                <mxCell id="7" value="Train&lt;div&gt;Classifier&lt;/div&gt;" style="shape=step;perimeter=stepPerimeter;fixedSize=1;points=[];whiteSpace=wrap;html=1;fillColor=#e1d5e7;strokeColor=#9673a6;" parent="2" vertex="1">
                    <mxGeometry x="308" y="33" width="112" height="57" as="geometry"/>
                </mxCell>
            </root>
        </mxGraphModel>
    </diagram>
</mxfile>